<svg width="66" height="17" viewBox="0 0 66 17" fill="none" xmlns="http://www.w3.org/2000/svg">
<path d="M7.09481 2.66888C6.08845 2.66888 5.1995 3.28995 4.81374 4.22993L0 16.2651H3.50548L4.44474 13.8144H9.66102L10.617 16.2651H14.2064L9.3759 4.22993C8.99013 3.28995 8.10117 2.66888 7.09481 2.66888ZM5.40078 11.112L7.07804 6.66381L8.72176 11.112H5.40078Z" fill="#DADADA"/>
<path d="M17.0746 8.34232H14.1226C13.4685 8.34232 12.9317 7.80519 12.9317 7.15056C12.9317 6.49593 13.4685 5.9588 14.1226 5.9588H20.1272V16.2651H17.0746V8.34232Z" fill="#DADADA"/>
<path d="M38.963 8.34232H36.0109C35.3568 8.34232 34.8201 7.80519 34.8201 7.15056C34.8201 6.49593 35.3568 5.9588 36.0109 5.9588H42.0155V16.2651H38.963V8.34232Z" fill="#DADADA"/>
<path d="M44.9839 14.6201L50.2505 8.34232H46.3928C45.7387 8.34232 45.202 7.80519 45.202 7.15056C45.202 6.49593 45.7387 5.9588 46.3928 5.9588H54.5107V7.58698L49.2106 13.8647H53.4541C54.125 13.8647 54.6617 14.4019 54.6617 15.0733C54.6617 15.7447 54.125 16.2818 53.4541 16.2818H44.9839V14.6201Z" fill="#DADADA"/>
<path d="M55.7856 11.0951C55.7856 7.72128 58.3853 5.69025 61.1528 5.69025C64.3228 5.69025 66 8.00663 66 10.6419C66 11.1287 66 11.5987 65.9498 12.0184H58.0666V9.97055H63.8196L63.3332 10.558C63.3332 8.89624 62.612 8.04021 61.2535 8.04021C59.7439 8.04021 58.7543 9.06413 58.7543 11.1119C58.7543 13.2437 59.9116 14.1837 61.9243 14.1837C62.5617 14.1837 63.1991 14.0662 63.786 13.848C64.2892 13.6633 64.8595 13.8647 65.1279 14.3347C65.4298 14.8886 65.195 15.6104 64.6079 15.8622C63.6519 16.2818 62.5113 16.5169 61.505 16.5169C58.2847 16.5 55.7856 14.5194 55.7856 11.0951Z" fill="#DADADA"/>
<path d="M34.3839 3.27312H24.4209C23.7333 3.27312 23.1798 2.7192 23.1798 2.031C23.1798 1.34279 23.7333 0.788879 24.4209 0.788879H34.3839C35.0716 0.788879 35.625 1.34279 35.625 2.031C35.625 2.7192 35.0716 3.27312 34.3839 3.27312Z" fill="#DADADA"/>
<path d="M18.4667 4.06206C19.5875 4.06206 20.4962 3.15274 20.4962 2.03103C20.4962 0.909325 19.5875 0 18.4667 0C17.3459 0 16.4372 0.909325 16.4372 2.03103C16.4372 3.15274 17.3459 4.06206 18.4667 4.06206Z" fill="#DADADA"/>
<path d="M40.355 4.06206C41.4759 4.06206 42.3845 3.15274 42.3845 2.03103C42.3845 0.909325 41.4759 0 40.355 0C39.2341 0 38.3255 0.909325 38.3255 2.03103C38.3255 3.15274 39.2341 4.06206 40.355 4.06206Z" fill="#DADADA"/>
<path d="M29.7377 5.69026C28.3455 5.69026 27.2888 6.29453 26.4334 7.06666C26.3999 6.26096 25.729 5.62311 24.9071 5.62311C24.0685 5.62311 23.3808 6.31131 23.3808 7.15058V7.77164V16.2483H26.4334V9.50056C27.1211 8.74519 27.7082 8.30876 28.5132 8.30876C29.637 8.30876 30.0228 8.91308 30.0228 10.2894V16.2651H33.0754V9.88658C33.0921 7.28486 32.069 5.69026 29.7377 5.69026Z" fill="#DADADA"/>
</svg>
