<svg width="22" height="21" viewBox="0 0 22 21" fill="none" xmlns="http://www.w3.org/2000/svg">
<path d="M11.0001 0C4.9257 0 0 4.81991 0 10.7658C0 15.5225 3.15186 19.5579 7.52253 20.9815C8.07228 21.0812 8.27411 20.748 8.27411 20.4636C8.27411 20.2069 8.26391 19.3588 8.25918 18.4592C5.19894 19.1105 4.55319 17.189 4.55319 17.189C4.05281 15.9446 3.33183 15.6137 3.33183 15.6137C2.33379 14.9455 3.40706 14.9593 3.40706 14.9593C4.51166 15.0352 5.09329 16.0687 5.09329 16.0687C6.07439 17.7146 7.66662 17.2387 8.29433 16.9637C8.39306 16.2678 8.67814 15.7929 8.99272 15.5241C6.54945 15.2518 3.98104 14.3287 3.98104 10.2035C3.98104 9.02816 4.41075 8.06778 5.11442 7.31384C5.00021 7.04268 4.62369 5.9477 5.22098 4.46479C5.22098 4.46479 6.1447 4.17544 8.24679 5.56832C9.12424 5.32979 10.0653 5.21016 11.0001 5.20606C11.9349 5.21016 12.8767 5.32979 13.7558 5.56832C15.8553 4.17544 16.7777 4.46479 16.7777 4.46479C17.3765 5.9477 16.9998 7.04268 16.8856 7.31384C17.5909 8.06778 18.0177 9.02816 18.0177 10.2035C18.0177 14.3385 15.4444 15.249 12.9949 15.5155C13.3894 15.8496 13.741 16.5048 13.741 17.5092C13.741 18.9497 13.7283 20.109 13.7283 20.4636C13.7283 20.7501 13.9263 21.0858 14.4838 20.9801C18.8521 19.5549 22 15.5209 22 10.7658C22 4.81991 17.075 0 11.0001 0Z" fill="#DADADA"/>
</svg>
