<svg width="24" height="24" viewBox="0 0 24 24" fill="none" xmlns="http://www.w3.org/2000/svg">
<path fill-rule="evenodd" clip-rule="evenodd" d="M19.0587 4.91667C15.1467 1.01821 8.81508 1.0292 4.91666 4.94122C1.01821 8.85325 1.0292 15.1849 4.94122 19.0833C8.84363 22.9722 15.1564 22.9722 19.0588 19.0833C22.9708 15.1849 22.9818 8.85323 19.0833 4.94122C19.0752 4.93303 19.067 4.92484 19.0588 4.91667L19.0587 4.91667ZM16.7837 9.20001L11.2754 15.625L7.31708 12.6583C6.94889 12.3822 6.87427 11.8599 7.15041 11.4917C7.42655 11.1235 7.94889 11.0489 8.31708 11.325L11.0254 13.3583L15.5171 8.11668C15.8162 7.7669 16.3423 7.72585 16.6921 8.02501C17.0418 8.32416 17.0829 8.85023 16.7837 9.20001Z" fill="white"/>
<mask id="mask0" maskUnits="userSpaceOnUse" x="2" y="2" width="20" height="20">
<path fill-rule="evenodd" clip-rule="evenodd" d="M19.0587 4.91667C15.1467 1.01821 8.81508 1.0292 4.91666 4.94122C1.01821 8.85325 1.0292 15.1849 4.94122 19.0833C8.84363 22.9722 15.1564 22.9722 19.0588 19.0833C22.9708 15.1849 22.9818 8.85323 19.0833 4.94122C19.0752 4.93303 19.067 4.92484 19.0588 4.91667L19.0587 4.91667ZM16.7837 9.20001L11.2754 15.625L7.31708 12.6583C6.94889 12.3822 6.87427 11.8599 7.15041 11.4917C7.42655 11.1235 7.94889 11.0489 8.31708 11.325L11.0254 13.3583L15.5171 8.11668C15.8162 7.7669 16.3423 7.72585 16.6921 8.02501C17.0418 8.32416 17.0829 8.85023 16.7837 9.20001Z" fill="white"/>
</mask>
<g mask="url(#mask0)">
</g>
</svg>
