<svg width="24" height="24" viewBox="0 0 24 24" fill="none" xmlns="http://www.w3.org/2000/svg">
<path fill-rule="evenodd" clip-rule="evenodd" d="M2 12C2 17.5227 6.47726 22 12 22C17.5227 22 22 17.5227 22 12C22 6.47726 17.5227 2 12 2C6.47726 2 2 6.47726 2 12ZM15.9314 15.9202C16.2555 15.5935 16.2533 15.0658 15.9266 14.7417L13.1766 12.0001L15.9266 9.2584C16.2533 8.93163 16.2533 8.40183 15.9266 8.07506C15.5998 7.74829 15.07 7.74829 14.7432 8.07506L12.0016 10.8251L9.25991 8.07506C8.93314 7.74829 8.40335 7.74829 8.07658 8.07506C7.74981 8.40183 7.74981 8.93163 8.07658 9.2584L10.8266 12.0001L8.07658 14.7417L8.07174 14.7466C7.74764 15.0733 7.74981 15.601 8.07658 15.9251L8.08141 15.9299C8.40818 16.254 8.93581 16.2518 9.25991 15.9251L12.0016 13.1751L14.7432 15.9251L14.7481 15.9299C15.0748 16.254 15.6025 16.2518 15.9266 15.9251L15.9314 15.9202Z" fill="white"/>
</svg>
