<svg width="36" height="36" viewBox="0 0 36 36" fill="none" xmlns="http://www.w3.org/2000/svg">
<circle cx="18" cy="18" r="18" fill="#828282"/>
<path fill-rule="evenodd" clip-rule="evenodd" d="M14.2002 21.7998C14.4359 22.032 14.7526 22.1635 15.0834 22.1664C15.415 22.1671 15.733 22.0351 15.9667 21.7998L21.7995 15.967C22.3045 15.4964 22.3324 14.7055 21.8618 14.2005C21.3913 13.6955 20.6004 13.6676 20.0953 14.1381C20.0738 14.1582 20.053 14.179 20.033 14.2005L14.2002 20.0333H14.2002C13.7173 20.5232 13.7173 21.31 14.2002 21.7998ZM17.1166 24.3662C15.575 25.8504 13.1221 25.8039 11.638 24.2623C10.1919 22.7602 10.1937 20.3832 11.6421 18.8834L14.3752 16.142L12.6087 14.3755L9.86724 17.1169H9.86724C7.37759 19.6066 7.37759 23.6431 9.86724 26.1328C12.3569 28.6224 16.3934 28.6224 18.8831 26.1328L21.6245 23.3913L19.858 21.6248L17.1166 24.3662ZM26.1324 9.86755V9.86755C23.6433 7.3779 19.6073 7.37742 17.1177 9.8665C17.1173 9.86685 17.117 9.8672 17.1166 9.86755L14.3752 12.609L16.15 14.3755L18.8831 11.6341V11.6341C20.3972 10.12 22.8519 10.12 24.3659 11.6341C25.88 13.1481 25.88 15.6029 24.3659 17.1169L21.6245 19.8583L23.391 21.6248L26.1325 18.8834L26.1324 18.8834C28.6221 16.3943 28.6226 12.3583 26.1335 9.86864C26.1332 9.86829 26.1328 9.86793 26.1325 9.86758L26.1324 9.86755Z" fill="white"/>
<mask id="mask0" mask-type="alpha" maskUnits="userSpaceOnUse" x="8" y="8" width="20" height="20">
<path fill-rule="evenodd" clip-rule="evenodd" d="M14.2002 21.7998C14.4359 22.032 14.7526 22.1635 15.0834 22.1664C15.415 22.1671 15.733 22.0351 15.9667 21.7998L21.7995 15.967C22.3045 15.4964 22.3324 14.7055 21.8618 14.2005C21.3913 13.6955 20.6004 13.6676 20.0953 14.1381C20.0738 14.1582 20.053 14.179 20.033 14.2005L14.2002 20.0333H14.2002C13.7173 20.5232 13.7173 21.31 14.2002 21.7998ZM17.1166 24.3662C15.575 25.8504 13.1221 25.8039 11.638 24.2623C10.1919 22.7602 10.1937 20.3832 11.6421 18.8834L14.3752 16.142L12.6087 14.3755L9.86724 17.1169H9.86724C7.37759 19.6066 7.37759 23.6431 9.86724 26.1328C12.3569 28.6224 16.3934 28.6224 18.8831 26.1328L21.6245 23.3913L19.858 21.6248L17.1166 24.3662ZM26.1324 9.86755V9.86755C23.6433 7.3779 19.6073 7.37742 17.1177 9.8665C17.1173 9.86685 17.117 9.8672 17.1166 9.86755L14.3752 12.609L16.15 14.3755L18.8831 11.6341V11.6341C20.3972 10.12 22.8519 10.12 24.3659 11.6341C25.88 13.1481 25.88 15.6029 24.3659 17.1169L21.6245 19.8583L23.391 21.6248L26.1325 18.8834L26.1324 18.8834C28.6221 16.3943 28.6226 12.3583 26.1335 9.86864C26.1332 9.86829 26.1328 9.86793 26.1325 9.86758L26.1324 9.86755Z" fill="white"/>
</mask>
<g mask="url(#mask0)">
</g>
</svg>
