<svg width="36" height="36" viewBox="0 0 36 36" fill="none" xmlns="http://www.w3.org/2000/svg">
<path d="M36 18C36 8.0595 27.9405 0 18 0C8.0595 0 0 8.0595 0 18C0 26.9842 6.58125 34.4318 15.1875 35.7817V23.2043H10.6178V18H15.1875V14.0355C15.1875 9.52425 17.874 7.03125 21.987 7.03125C23.9558 7.03125 26.0168 7.38225 26.0168 7.38225V11.8125H23.7465C21.51 11.8125 20.8125 13.2008 20.8125 14.6228V18H25.8053L25.0065 23.2043H20.8125V35.7817C29.4188 34.4318 36 26.9842 36 18Z" fill="url(#paint0_linear)"/>
<path d="M25.8052 18H20.8125V14.6228C20.8125 13.1985 21.51 11.8125 23.7465 11.8125H26.0167V7.38225C26.0167 7.38225 23.9557 7.03125 21.987 7.03125C17.874 7.03125 15.1875 9.52425 15.1875 14.0355V18H10.6177V23.2043H15.1875V35.7818C16.1032 35.9258 17.0437 36 18 36C18.9562 36 19.8967 35.9258 20.8125 35.7818V23.2043H25.0065L25.8052 18Z" fill="white"/>
<defs>
<linearGradient id="paint0_linear" x1="18" y1="35.7813" x2="18" y2="0" gradientUnits="userSpaceOnUse">
<stop stop-color="#1569CB"/>
<stop offset="1" stop-color="#29AEF3"/>
</linearGradient>
</defs>
</svg>
